<?xml version="1.0" encoding="UTF-8" standalone="no"?>
<!-- Created with Inkscape (http://www.inkscape.org/) -->

<svg
   width="160"
   height="90"
   viewBox="0 0 42.333328 23.812497"
   version="1.1"
   id="svg1"
   inkscape:version="1.3.2 (091e20ef0f, 2023-11-25)"
   sodipodi:docname="bg.svg"
   xmlns:inkscape="http://www.inkscape.org/namespaces/inkscape"
   xmlns:sodipodi="http://sodipodi.sourceforge.net/DTD/sodipodi-0.dtd"
   xmlns:xlink="http://www.w3.org/1999/xlink"
   xmlns="http://www.w3.org/2000/svg"
   xmlns:svg="http://www.w3.org/2000/svg">
  <sodipodi:namedview
     id="namedview1"
     pagecolor="#460f54"
     bordercolor="#000000"
     borderopacity="0.25"
     inkscape:showpageshadow="2"
     inkscape:pageopacity="0.0"
     inkscape:pagecheckerboard="0"
     inkscape:deskcolor="#d1d1d1"
     inkscape:document-units="mm"
     inkscape:zoom="4.9501196"
     inkscape:cx="67.473117"
     inkscape:cy="57.675374"
     inkscape:window-width="1741"
     inkscape:window-height="1148"
     inkscape:window-x="0"
     inkscape:window-y="0"
     inkscape:window-maximized="1"
     inkscape:current-layer="g18" />
  <defs
     id="defs1">
    <inkscape:path-effect
       effect="powerstroke"
       id="path-effect27"
       is_visible="true"
       lpeversion="1.3"
       scale_width="1"
       interpolator_type="CentripetalCatmullRom"
       interpolator_beta="0.2"
       start_linecap_type="zerowidth"
       end_linecap_type="zerowidth"
       offset_points="0.1723439,0.17652374 | 1.4889168,-0.1148592 | 2.8,0.029633336"
       linejoin_type="round"
       miter_limit="4"
       not_jump="false"
       sort_points="true"
       message="&lt;b&gt;Ctrl + click&lt;/b&gt; on existing node and move it" />
    <inkscape:path-effect
       effect="powerstroke"
       id="path-effect26"
       is_visible="true"
       lpeversion="1.3"
       scale_width="1"
       interpolator_type="CentripetalCatmullRom"
       interpolator_beta="0.2"
       start_linecap_type="zerowidth"
       end_linecap_type="butt"
       offset_points="0.1953008,0.1778331 | 2.5136252,0.050458862 | 4.8053061,0.23762981"
       linejoin_type="round"
       miter_limit="4"
       not_jump="false"
       sort_points="true"
       message="&lt;b&gt;Ctrl + click&lt;/b&gt; on existing node and move it" />
    <linearGradient
       id="linearGradient23"
       inkscape:collect="always">
      <stop
         style="stop-color:#721481;stop-opacity:0.63921571;"
         offset="0"
         id="stop23" />
      <stop
         style="stop-color:#721481;stop-opacity:0.06666667;"
         offset="1"
         id="stop24" />
    </linearGradient>
    <linearGradient
       id="linearGradient21"
       inkscape:collect="always">
      <stop
         style="stop-color:#721481;stop-opacity:0.44705883;"
         offset="0"
         id="stop21" />
      <stop
         style="stop-color:#721481;stop-opacity:0;"
         offset="1"
         id="stop22" />
    </linearGradient>
    <linearGradient
       inkscape:collect="always"
       xlink:href="#linearGradient21"
       id="linearGradient22"
       x1="6.4868116"
       y1="9.9929123"
       x2="12.397117"
       y2="15.679659"
       gradientUnits="userSpaceOnUse" />
    <linearGradient
       inkscape:collect="always"
       xlink:href="#linearGradient23"
       id="linearGradient24"
       x1="36.98365"
       y1="20.295918"
       x2="24.768497"
       y2="4.9392819"
       gradientUnits="userSpaceOnUse" />
  </defs>
  <g
     inkscape:label="Layer 1"
     inkscape:groupmode="layer"
     id="g18"
     style="display:inline">
    <rect
       style="display:inline;fill:#460f54;fill-opacity:1;stroke:none;stroke-width:0.191558;stroke-dasharray:none;stroke-opacity:1"
       id="rect28-5"
       width="44.436638"
       height="26.195547"
       x="-0.48638114"
       y="-0.62806809" />
    <path
       d="m 42.710278,13.494853 c -0.746812,0.271216 -1.986607,0.601077 -3.971851,0.999939 -6.251923,1.256094 -10.210141,0.646171 -14.293407,-0.416582 -3.288107,0.519294 -7.473625,1.609302 -11.579655,2.715597 0.294953,0.0173 0.586056,0.03863 0.86403,0.0708 4.360251,0.504491 8.699896,1.703622 12.972851,1.837614 5.989758,0.187828 11.971436,-1.264435 15.890519,-2.040835 0.448941,-0.08894 -0.456589,0.373922 0.431555,0.120423 z"
       style="display:inline;fill:url(#linearGradient24);fill-opacity:1;stroke:none;stroke-width:0.264583"
       id="path20"
       sodipodi:nodetypes="cscccsscc" />
    <path
       d="m 12.865365,16.793807 c 4.10603,-1.106295 8.291548,-2.196303 11.579655,-2.715597 -1.070971,-0.278741 -2.142988,-0.514509 -3.256132,-0.63717 -3.614125,-0.398252 -9.03186,-0.116232 -12.972852,0.50742 -2.7477422,0.434823 -6.8978902,1.289929 -8.45581465,1.809751 l 0.0191203,3.486609 C 1.6773894,18.027006 8.21258,16.5209 12.865365,16.793807 Z"
       style="display:inline;fill:url(#linearGradient22);fill-opacity:1;stroke:none;stroke-width:0.264583"
       id="path19"
       sodipodi:nodetypes="ccssccc" />
    <path
       style="display:none;fill:none;stroke:#ffffff;stroke-width:0.264583;stroke-opacity:1"
       d="m -0.70484405,19.660279 c 0.83907099,-1.32304 9.25526445,-3.395038 14.43424605,-2.795817 4.360256,0.504492 8.703515,2.062539 12.972663,1.837794 4.601905,-0.242262 7.423244,-2.126076 13.765437,-2.378322 2.709129,-0.10775 2.810743,0.756739 2.810743,0.756739"
       id="path13"
       sodipodi:nodetypes="csssc" />
    <path
       style="display:inline;fill:#b146c2;fill-opacity:0.3773585;fill-rule:nonzero;stroke:none;stroke-width:0.264583;stroke-opacity:1"
       d="m -1.3441481,17.573037 c 0.00885,0.03571 0.1085814,0.09861 1.53929402,-0.168985 0.47145903,-0.08818 3.63570778,-0.725694 6.75019158,-1.165083 2.0578977,-0.290327 4.7045345,-0.591888 7.3746445,-0.666771 2.353816,-0.06601 4.828157,0.04094 6.933458,0.530699 0.368274,0.07854 0.811707,0.15808 1.302411,0.234317 0.471008,0.07318 0.979537,0.142346 1.48921,0.20255 0.502682,0.05938 1.000298,0.109298 1.455521,0.145278 0.460207,0.03637 0.870677,0.058 1.199781,0.06162 0.8928,0.02223 1.513667,0.05998 1.952953,0.117073 0.229305,0.0298 0.406557,0.06459 0.543887,0.104206 0.0708,0.02042 0.130569,0.04201 0.180967,0.06461 0.0517,0.02318 0.09321,0.04729 0.126363,0.07196 0.0073,0.0055 0.01427,0.01095 0.02081,0.01646 0.02326,0.01961 0.04204,0.0398 0.05689,0.06058 0.01849,0.02586 0.03114,0.05296 0.03878,0.08173 0.0075,0.02818 0.01035,0.05869 0.0086,0.0922 -0.0017,0.03294 -0.0078,0.06868 -0.01829,0.107767 -0.0206,0.0769 -0.05697,0.163125 -0.105565,0.263299 -0.04698,0.09685 -0.10451,0.204727 -0.165557,0.324425 -0.03772,0.07633 -0.06612,0.150444 -0.08504,0.2224 -0.01885,0.0717 -0.0283,0.141369 -0.02808,0.208913 2.21e-4,0.06737 0.01007,0.132153 0.02942,0.194158 0.01929,0.06179 0.04777,0.120049 0.08466,0.174773 0.07336,0.108828 0.178889,0.202323 0.309924,0.283047 0.130231,0.08023 0.286885,0.148517 0.465049,0.206574 0.354952,0.115665 0.800948,0.192527 1.306026,0.240097 0.505763,0.04763 1.072077,0.06601 1.667324,0.064 1.203902,-0.0041 2.530523,-0.09172 3.709092,-0.190576 0.603997,-0.05066 1.178402,-0.105094 1.680191,-0.153518 0.523425,-0.05051 0.96171,-0.09385 1.320541,-0.125158 0.726274,-0.06309 1.256972,0.03779 1.642148,0.187983 0.436554,0.170229 0.719425,0.416948 0.900247,0.625317 0.232849,0.268322 0.347135,0.533025 0.395691,0.658163 0.01684,0.0434 0.02987,0.08095 0.03956,0.110111 0.06004,0.1807 0.0531,0.181067 0.05216,0.176117 l 0.466902,-0.08874 c 0,0 0,0 0,0 -9.41e-4,-0.0049 0.01173,-0.02594 -0.07138,-0.246928 -0.01348,-0.03584 -0.03154,-0.08077 -0.05476,-0.132554 -0.06678,-0.148953 -0.221343,-0.457649 -0.513952,-0.763658 -0.229611,-0.240127 -0.575796,-0.512487 -1.085242,-0.689654 -0.448576,-0.155999 -1.035405,-0.242487 -1.803256,-0.157173 -0.310713,0.0346 -1.008909,0.11632 -1.319621,0.150915 -0.50099,0.05674 -1.071792,0.119321 -1.673799,0.178179 -1.174349,0.114816 -2.49194,0.217949 -3.686714,0.237401 -0.590521,0.0096 -1.149949,-0.0012 -1.647679,-0.04087 -0.498225,-0.03969 -0.93019,-0.107905 -1.269152,-0.211429 -0.16983,-0.05187 -0.31434,-0.11201 -0.43154,-0.180617 -0.117409,-0.06873 -0.205953,-0.145212 -0.265433,-0.228523 -0.02981,-0.04175 -0.0526,-0.08554 -0.06836,-0.131584 -0.0158,-0.04619 -0.02478,-0.09538 -0.02625,-0.148007 -0.0015,-0.0529 0.0046,-0.109671 0.01926,-0.170635 0.01474,-0.06126 0.03812,-0.126574 0.07101,-0.196096 0.05571,-0.121526 0.108211,-0.230596 0.152849,-0.333534 0.04538,-0.10465 0.08156,-0.200631 0.101259,-0.289408 0.01011,-0.04557 0.01595,-0.08954 0.01635,-0.13193 4.06e-4,-0.04334 -0.0049,-0.08489 -0.01696,-0.124557 -0.01238,-0.04066 -0.03159,-0.07834 -0.05779,-0.113222 -0.0209,-0.02783 -0.04599,-0.05353 -0.07505,-0.0774 -0.0082,-0.0067 -0.01669,-0.01331 -0.02559,-0.01982 -0.04008,-0.02933 -0.08788,-0.05685 -0.144511,-0.08274 -0.05522,-0.02525 -0.119198,-0.04911 -0.193217,-0.07165 -0.143343,-0.04366 -0.325481,-0.08276 -0.557512,-0.117513 -0.444323,-0.06656 -1.069471,-0.117025 -1.963628,-0.154642 -0.323803,-0.01825 -0.729554,-0.05672 -1.184967,-0.111381 -0.450438,-0.05407 -0.942945,-0.123212 -1.439937,-0.202027 -0.504285,-0.07997 -1.005544,-0.168678 -1.469186,-0.260473 -0.483637,-0.09575 -0.915392,-0.192676 -1.271153,-0.285843 -2.147754,-0.518657 -4.660065,-0.641322 -7.030944,-0.58622 -2.694368,0.06262 -5.3570929,0.358713 -7.4255389,0.651131 -3.4459317,0.487155 -5.98734034,1.062546 -6.76388071,1.254283 -1.46827679,0.362534 -1.47105169,0.487804 -1.46391949,0.516572 z"
       id="path14"
       sodipodi:nodetypes="cssssc"
       inkscape:path-effect="#path-effect26"
       inkscape:original-d="m -1.3441481,17.573037 c 0,0 14.4760691,-3.588913 22.6409361,-1.652953 1.487925,0.3528 4.085994,0.707528 5.406082,0.751747 3.487656,0.116825 3.162452,0.458916 2.701831,1.410363 -1.132207,2.338659 7.495879,1.219302 10.378694,0.932985 2.868923,-0.284937 3.279201,1.873829 3.279201,1.873829" />
    <path
       style="display:none;fill:none;stroke:#ffffff;stroke-width:0.264583;stroke-opacity:1"
       d="m -1.0965664,15.853611 c 0,0 6.2056283,-0.638484 9.3125863,-1.511612 3.8389711,-1.078841 9.3585351,-1.299131 12.9726631,-0.900879 5.357212,0.590329 9.765532,3.747658 17.657235,2.162111 7.891703,-1.585548 4.035941,-2.090041 4.035941,-2.090041"
       id="path15"
       sodipodi:nodetypes="csssc" />
    <path
       d="m 28.639079,13.81001 c -0.280708,-0.03295 -0.576965,-0.05666 -0.905888,-0.06046 -0.48346,-0.0056 -1.015022,0.0193 -1.58595,0.06925 -1.15941,0.101432 -2.478305,0.307341 -3.876249,0.576709 -2.944763,0.567421 -6.379789,1.446362 -9.31416,2.215368 -4.2450096,1.112484 -6.373767,1.696573 -9.0206382,2.321306 -0.9380953,0.221416 -1.6772675,0.383017 -2.2923665,0.510046 -0.4573115,0.09444 -0.85588468,0.172257 -1.2092285,0.236678 -0.56309942,0.102663 -0.99812396,0.168799 -1.34358724,0.21084 -0.52107596,0.06341 -0.83964946,0.07172 -1.03042806,0.05995 0.1849781,0.03931 0.5051209,0.100506 1.03921305,0.105936 0.35380951,0.0036 0.80233293,-0.01707 1.37821045,-0.08372 0.36087362,-0.04177 0.7690565,-0.101056 1.2324829,-0.182935 0.6196433,-0.109479 1.3745414,-0.264927 2.3130371,-0.483691 2.4473711,-0.570486 4.9941126,-1.287426 9.012887,-2.398304 2.921356,-0.807527 6.339989,-1.740097 9.265067,-2.362129 1.38921,-0.295423 2.699542,-0.528863 3.852478,-0.657841 0.56776,-0.06352 1.097071,-0.101477 1.579232,-0.109554 0.327761,-0.0055 0.624315,0.0087 0.905888,0.03256 z"
       style="display:inline;fill:#721481;stroke-width:0.191558;fill-opacity:1"
       id="path27" />
    <path
       style="display:inline;fill:none;stroke:#ffffff;stroke-width:0.264583;stroke-opacity:1"
       d="m 42.824765,12.987838 -0.0351,8.003317"
       id="path17" />
    <path
       style="display:inline;fill:none;stroke:#ffffff;stroke-width:0.264583;stroke-opacity:1"
       d="m -0.24571586,14.742952 0.0351023,6.318408"
       id="path18" />
    <rect
       style="display:inline;fill:#460f54;fill-opacity:0.40000001;stroke:none;stroke-width:0.191558;stroke-dasharray:none;stroke-opacity:1"
       id="rect28"
       width="44.436638"
       height="26.195547"
       x="-0.45810971"
       y="-0.58304876" />
  </g>
</svg>
