<?xml version="1.0" encoding="UTF-8" standalone="no"?>
<!DOCTYPE svg PUBLIC "-//W3C//DTD SVG 1.1//EN" "http://www.w3.org/Graphics/SVG/1.1/DTD/svg11.dtd">
<svg width="642pt" height="664pt" viewBox="0.00 35.00 641.67 699.44" xmlns="http://www.w3.org/2000/svg" xmlns:xlink="http://www.w3.org/1999/xlink">
<style>@font-face {
font-family: 'Iosevka Fuck Web';
font-display: swap;
font-weight: 400;
font-stretch: normal;
font-style: normal;
src: url('/res/font/ttf/iosevka-fuck-regular.ttf') format('truetype'), url('/res/font/woff2/iosevka-fuck-regular.woff2') format('woff2');}
</style><g transform="translate(4 725.44)">
<g><polygon fill="none" stroke="white" points="580.42,-684 349.12,-684 349.12,-648 580.42,-648 580.42,-684"/>
<text text-anchor="middle" x="464.77" y="-662.08" font-family="Iosevka Fuck Web" font-size="14.00" fill="white">Find &amp; load shared object file</text></g>
<g><polygon fill="none" stroke="white" points="546.67,-612 382.88,-612 382.88,-576 546.67,-576 546.67,-612"/>
<text text-anchor="middle" x="464.77" y="-590.08" font-family="Iosevka Fuck Web" font-size="14.00" fill="white">ladspa_descriptor(i)</text></g>
<g><path fill="none" stroke="white" d="M464.77,-647.7C464.77,-640.41 464.77,-631.73 464.77,-623.54"/>
<polygon fill="white" stroke="white" points="468.28,-623.62 464.78,-613.62 461.28,-623.62 468.28,-623.62"/></g>
<g><polygon fill="none" stroke="white" points="384.8,-468 200.75,-468 200.75,-432 384.8,-432 384.8,-468"/>
<text text-anchor="middle" x="292.77" y="-446.07" font-family="Iosevka Fuck Web" font-size="14.00" fill="white">Plguin needs to be used</text></g>
<g><polygon fill="none" stroke="white" points="577.17,-396 8.38,-396 8.38,-360 577.17,-360 577.17,-396"/>
<text text-anchor="middle" x="292.77" y="-374.07" font-family="Iosevka Fuck Web" font-size="14.00" fill="white">Descriptor.instantiate(LADSPA_Descriptor* Descriptor, ulong SampleRate) &#45;&gt; void*</text></g>
<g><path fill="none" stroke="white" d="M292.77,-431.7C292.77,-424.41 292.77,-415.73 292.77,-407.54"/>
<polygon fill="white" stroke="white" points="296.28,-407.62 292.78,-397.62 289.28,-407.62 296.28,-407.62"/></g>
<g><polygon fill="none" stroke="white" points="526.55,-324 59,-324 59,-288 526.55,-288 526.55,-324"/>
<text text-anchor="middle" x="292.77" y="-302.07" font-family="Iosevka Fuck Web" font-size="14.00" fill="white">Descriptor.connect_port(void* Instance, ulong Index, f32* Buffer)</text></g>
<g><path fill="none" stroke="white" d="M292.77,-359.7C292.77,-352.41 292.77,-343.73 292.77,-335.54"/>
<polygon fill="white" stroke="white" points="296.28,-335.62 292.78,-325.62 289.28,-335.62 296.28,-335.62"/></g>
<g><path fill="none" stroke="white" d="M526.89,-314.55C538.02,-312.4 544.55,-309.55 544.55,-306 544.55,-303.84 542.12,-301.93 537.71,-300.29"/>
<polygon fill="white" stroke="white" points="538.91,-296.99 528.35,-297.83 537.14,-303.76 538.91,-296.99"/></g>
<g><polygon fill="none" stroke="white" points="425.3,-252 160.25,-252 160.25,-216 425.3,-216 425.3,-252"/>
<text text-anchor="middle" x="292.77" y="-230.07" font-family="Iosevka Fuck Web" font-size="14.00" fill="white">Descriptor.activate(void* Instance)</text></g>
<g><path fill="none" stroke="white" d="M292.77,-287.7C292.77,-280.41 292.77,-271.73 292.77,-263.54"/>
<polygon fill="white" stroke="white" points="296.28,-263.62 292.78,-253.62 289.28,-263.62 296.28,-263.62"/></g>
<g><polygon fill="none" stroke="white" points="359.55,-180 0,-180 0,-144 359.55,-144 359.55,-180"/>
<text text-anchor="middle" x="179.77" y="-158.07" font-family="Iosevka Fuck Web" font-size="14.00" fill="white">Descriptor.run(void* Instance, ulong SampleCount)</text></g>
<g><path fill="none" stroke="white" d="M264.55,-215.52C250.29,-206.68 232.78,-195.84 217.39,-186.3"/>
<polygon fill="white" stroke="white" points="219.27,-183.35 208.93,-181.06 215.58,-189.3 219.27,-183.35"/></g>
<g><path fill="none" stroke="white" d="M359.84,-171.4C370.9,-169.18 377.55,-166.04 377.55,-162 377.55,-159.54 375.08,-157.41 370.65,-155.62"/>
<polygon fill="white" stroke="white" points="371.87,-152.33 361.29,-153 369.98,-159.07 371.87,-152.33"/></g>
<g><polygon fill="none" stroke="white" points="432.05,-108 153.5,-108 153.5,-72 432.05,-72 432.05,-108"/>
<text text-anchor="middle" x="292.77" y="-86.08" font-family="Iosevka Fuck Web" font-size="14.00" fill="white">Descriptor.deactivate(void* Instance)</text></g>
<g><path fill="none" stroke="white" d="M208,-143.52C222.26,-134.68 239.77,-123.84 255.16,-114.3"/>
<polygon fill="white" stroke="white" points="256.97,-117.3 263.62,-109.06 253.28,-111.35 256.97,-117.3"/></g>
<g><path fill="none" stroke="white" d="M344.92,-108.28C361.24,-116.43 377.42,-127.99 386.77,-144 394.85,-157.82 394.85,-166.18 386.77,-180 379.32,-192.76 367.53,-202.69 354.79,-210.32"/>
<polygon fill="white" stroke="white" points="353.34,-207.13 346.25,-214.99 356.7,-213.27 353.34,-207.13"/></g>
<g><polygon fill="none" stroke="white" points="421.92,-36 163.62,-36 163.62,0 421.92,0 421.92,-36"/>
<text text-anchor="middle" x="292.77" y="-14.07" font-family="Iosevka Fuck Web" font-size="14.00" fill="white">Descriptor.cleanup(void* Instance)</text></g>
<g><path fill="none" stroke="white" d="M292.77,-71.7C292.77,-64.41 292.77,-55.73 292.77,-47.54"/>
<polygon fill="white" stroke="white" points="296.28,-47.62 292.78,-37.62 289.28,-47.62 296.28,-47.62"/></g>
<g><polygon fill="none" stroke="white" points="436.3,-540 225.25,-540 225.25,-504 436.3,-504 436.3,-540"/>
<text text-anchor="middle" x="330.77" y="-518.08" font-family="Iosevka Fuck Web" font-size="14.00" fill="white">Returns a LADSPA_Descriptor</text></g>
<g><path fill="none" stroke="white" d="M431.31,-575.52C413.91,-566.43 392.45,-555.22 373.83,-545.49"/>
<polygon fill="white" stroke="white" points="375.64,-542.49 365.16,-540.96 372.4,-548.69 375.64,-542.49"/></g>
<g><polygon fill="none" stroke="white" points="622.67,-540 512.88,-540 512.88,-504 622.67,-504 622.67,-540"/>
<text text-anchor="middle" x="567.77" y="-518.08" font-family="Iosevka Fuck Web" font-size="14.00" fill="white">Returns NULL</text></g>
<g><path fill="none" stroke="white" d="M490.5,-575.52C503.38,-566.76 519.15,-556.04 533.09,-546.58"/>
<polygon fill="white" stroke="white" points="534.82,-549.63 541.13,-541.11 530.89,-543.84 534.82,-549.63"/></g>
<g><path fill="none" stroke="white" d="M321.38,-503.7C317.19,-495.98 312.16,-486.71 307.49,-478.11"/>
<polygon fill="white" stroke="white" points="310.63,-476.55 302.78,-469.43 304.48,-479.89 310.63,-476.55"/></g>
<g><polygon fill="none" stroke="white" points="506.3,-468 403.25,-468 403.25,-432 506.3,-432 506.3,-468"/>
<text text-anchor="middle" x="454.77" y="-446.07" font-family="Iosevka Fuck Web" font-size="14.00" fill="white">Increment i</text></g>
<g><path fill="none" stroke="white" d="M361.75,-503.52C377.7,-494.51 397.34,-483.42 414.46,-473.76"/>
<polygon fill="white" stroke="white" points="415.89,-476.97 422.88,-469 412.45,-470.87 415.89,-476.97"/></g>
<g><path fill="none" stroke="white" d="M455.98,-468.11C457.66,-491.92 460.72,-535.37 462.75,-564.22"/>
<polygon fill="white" stroke="white" points="459.25,-564.35 463.44,-574.08 466.23,-563.86 459.25,-564.35"/></g>
<g><polygon fill="none" stroke="white" points="633.67,-468 523.88,-468 523.88,-432 633.67,-432 633.67,-468"/>
<text text-anchor="middle" x="578.77" y="-446.07" font-family="Iosevka Fuck Web" font-size="14.00" fill="white">Done loading</text></g>
<g><path fill="none" stroke="white" d="M570.49,-503.7C571.65,-496.32 573.04,-487.52 574.34,-479.25"/>
<polygon fill="white" stroke="white" points="577.76,-480.02 575.85,-469.6 570.84,-478.93 577.76,-480.02"/></g>
</g></svg>
