<?xml version="1.0" encoding="UTF-8" standalone="no"?>
<!-- Created with Inkscape (http://www.inkscape.org/) -->

<svg
   width="256"
   height="256"
   viewBox="0 0 67.733332 67.733332"
   version="1.1"
   id="svg1"
   xml:space="preserve"
   inkscape:version="1.3.2 (091e20ef0f, 2023-11-25)"
   sodipodi:docname="malinov.svg"
   xmlns:inkscape="http://www.inkscape.org/namespaces/inkscape"
   xmlns:sodipodi="http://sodipodi.sourceforge.net/DTD/sodipodi-0.dtd"
   xmlns="http://www.w3.org/2000/svg"
   xmlns:svg="http://www.w3.org/2000/svg"><sodipodi:namedview
     id="namedview1"
     pagecolor="#ffffff"
     bordercolor="#000000"
     borderopacity="0.25"
     inkscape:showpageshadow="2"
     inkscape:pageopacity="0.0"
     inkscape:pagecheckerboard="0"
     inkscape:deskcolor="#d1d1d1"
     inkscape:document-units="mm"
     inkscape:zoom="2.95472"
     inkscape:cx="146.54519"
     inkscape:cy="114.22402"
     inkscape:window-width="1741"
     inkscape:window-height="1148"
     inkscape:window-x="0"
     inkscape:window-y="0"
     inkscape:window-maximized="1"
     inkscape:current-layer="layer1"
     showgrid="false" /><defs
     id="defs1" /><g
     inkscape:label="Layer 1"
     inkscape:groupmode="layer"
     id="layer1"><path
       d="m 1.59348,22.900336 h 7.131368 v 2.614835 h 0.04322 q 0.734747,-0.626696 1.5343246,-1.166951 0.821188,-0.561866 1.707206,-0.97246 0.886019,-0.410593 1.836868,-0.648306 0.972459,-0.237712 2.009749,-0.237712 2.420343,0 4.17077,0.907629 1.750426,0.886018 2.701275,2.787716 0.821188,-0.734747 1.728817,-1.404663 0.907629,-0.691527 1.880088,-1.188561 0.994069,-0.497035 2.07458,-0.799578 1.08051,-0.302543 2.247461,-0.302543 1.815257,0 3.263141,0.497035 1.447884,0.497035 2.463564,1.512714 1.015679,1.01568 1.534324,2.614835 0.540255,1.577545 0.540255,3.738566 v 10.718662 h 3.11187 v 3.716955 h -10.45934 v -3.716955 h 3.15509 V 31.349927 q 0,-2.571615 -1.296612,-3.889838 -1.296612,-1.339832 -3.738566,-1.339832 -1.447883,0 -2.960598,0.691526 -1.512714,0.691527 -2.593224,1.750427 v 13.009344 h 3.090259 v 3.716955 H 16.331641 v -3.716955 h 3.15509 V 31.349927 q 0,-2.571615 -1.318223,-3.889838 -1.296612,-1.339832 -3.738566,-1.339832 -1.404663,0 -2.830937,0.669916 -1.426273,0.669916 -2.7012754,1.663986 V 41.571554 H 12.05282 v 3.716955 H 1.59348 V 41.571554 H 4.7053497 V 26.617291 H 1.59348 Z M 59.055018,43.21393 q -1.275002,1.188561 -2.830937,1.944918 -1.534325,0.756357 -3.500853,0.756357 -1.642376,0 -3.025429,-0.518645 -1.361443,-0.518645 -2.355513,-1.404663 -0.994069,-0.907629 -1.555935,-2.09619 -0.540255,-1.188561 -0.540255,-2.528394 0,-1.426274 0.410594,-2.528394 0.432204,-1.102121 1.123731,-1.901698 0.713137,-0.821188 1.642376,-1.361443 0.950849,-0.561866 1.966528,-0.886019 1.03729,-0.345763 2.09619,-0.475424 1.080511,-0.151272 2.05297,-0.151272 1.555935,0 2.614835,0.108051 1.0589,0.08644 1.923308,0.259323 l 0.02161,-1.836868 q 0,-1.188561 -0.345763,-2.052969 -0.345763,-0.886019 -0.972459,-1.447884 -0.626696,-0.583476 -1.512715,-0.864408 -0.864408,-0.280933 -1.944918,-0.280933 -1.01568,0 -1.944919,0.151271 -0.929239,0.129662 -1.750426,0.367374 -0.799578,0.216102 -1.491105,0.518645 -0.669916,0.280933 -1.145341,0.605086 L 46.67237,24.802034 q 0.799577,-0.518645 1.750427,-0.950849 0.950849,-0.453814 1.988138,-0.756357 1.058901,-0.324153 2.139411,-0.497035 1.10212,-0.194492 2.16102,-0.194492 1.944919,0 3.500854,0.475425 1.555935,0.453814 2.636445,1.426273 1.08051,0.97246 1.663986,2.485174 0.583475,1.491104 0.583475,3.587294 l -0.02161,11.194087 h 2.485174 v 3.716955 h -6.504672 z m -5.445772,-0.669917 q 0.799578,0 1.599155,-0.194492 0.799578,-0.194492 1.512715,-0.518645 0.713136,-0.345763 1.318222,-0.777967 0.605086,-0.453814 1.01568,-0.929239 l 0.02161,-5.056788 h -4.667804 q -1.166952,0 -2.139411,0.259322 -0.950849,0.259323 -1.663986,0.756358 -0.691526,0.497034 -1.08051,1.231781 -0.388984,0.734747 -0.388984,1.685596 0,0.886019 0.324153,1.555935 0.324153,0.648306 0.907629,1.102121 0.605086,0.432204 1.426274,0.669916 0.821187,0.216102 1.815257,0.216102 z"
       id="text1"
       style="font-size:44.2577px;font-family:Arvo;-inkscape-font-specification:'Arvo, Normal';fill:#ffffff;stroke-width:4.23302"
       transform="scale(1.0086394,0.99143459)"
       aria-label="ma" /></g></svg>
